<svg xmlns="http://www.w3.org/2000/svg" viewBox="88 72 238 268" width="24" height="24" fill-rule="evenodd" clip-rule="evenodd" aria-hidden="true"><path d="M105.694 218.494c-4.938.725-10.064.881-15.029.661-2.123-.092-4.162-1.139-4.12-3.554.238-13.675 3.064-25.151 11.907-35.88-3.439-1.358-4.956-2.301-3.399-6.415 5.652-14.936 15.148-28.658 32.022-31.263a35 35 0 0 1-1.618-1.322c-1.748-1.536-7.037-6.318-7.076-8.606-.024-1.386.892-2.74 1.883-3.672 9.12-8.579 20.311-15.497 33.127-15.498a36 36 0 0 1-.782-2.815c-1.252-5.155-3.033-16.424-1.242-21.899.211-.645 1.894-1.391 2.646-1.42 12.296-.474 24.448 1.666 34.264 9.513 2.572-6.716 7.501-13.489 12.45-18.691 1.145-1.204 2.381-2.666 3.815-3.472.496-.04 1.804-.132 2.208.161 6.994 5.083 13.108 14.198 16.435 21.923 8.599-6.689 19.009-9.302 29.786-9.461 6.669-.099 8.083-.342 7.864 6.796-.211 6.843-.836 12.759-2.976 19.347 12.923.035 24.426 6.854 33.483 15.609 3.743 3.618.834 6.056-1.927 8.866-1.621 1.649-3.277 3.205-4.977 4.771a25.6 25.6 0 0 1 8.286 2.206c12.111 5.48 19.023 16.949 23.624 28.887 1.497 3.879.217 5.161-3.381 6.308 8.836 11.308 11.764 21.828 11.935 36.124.046 3.978-5.15 3.548-7.78 3.558-3.678.016-7.278-.262-10.904-.755-1.56-1.485-3.232-2.286-5.216-2.352-5.993-.201-1.616 10.11-21.023 11.936-40.635 3.824-49.466 12.602-89.883 7.968-17.438-1.999-20.773-.113-29.652-3.5-14.589-5.565-14.823-4.934-30.446-4.06-13.642.763-7.415-15.026-15.365-11.865-3.877 1.541-3.892 1.297-7.988 1.496a5.4 5.4 0 0 0-.954.372Z" style="fill:#103b2e"/><path d="M306.221 218.5q-.714-.097-1.429-.205l.02 92.33c5.248-.042 9.731-.293 13.833 3.719a13.49 13.49 0 0 1 4.049 9.62c0 3.6-1.451 7.052-4.024 9.57-5.011 4.961-11.794 3.84-18.332 3.844l-20.827.002-71.911-.006-74.846-.004-21.179.016c-6.619.002-13.705 1.165-18.781-3.832a13.6 13.6 0 0 1-3.98-9.469 13.6 13.6 0 0 1 4.001-9.702c4.071-4.02 8.63-3.769 13.884-3.725l-.017-92.316q-.492.081-.986.153.463-.234.954-.372c4.096-.199 4.111.046 7.988-1.496 7.951-3.161 1.723 12.628 15.365 11.865 15.623-.874 15.857-1.505 30.446 4.06 8.88 3.387 12.215 1.501 29.652 3.5 40.416 4.634 49.247-4.143 89.883-7.968 19.407-1.827 15.03-12.137 21.023-11.936 1.984.067 3.656.868 5.216 2.352Z" style="fill:#492d26"/><path d="M290.437 215.914c3.57-.649 3.896-.842 7.211.659-.125 4.511-.022 9.307-.034 13.847l-18.607-.016c-3.221-.004-6.632-.108-9.817.102-3.787.404-3.856 6.64.018 6.932 3.197.239 6.478.135 9.678.133l18.794-.022c-.265 6.54-.006 13.727-.076 20.325-.189 17.512.301 35.306-.038 52.782l-22.206-.01-37.09.01-.016-42.3.048-11.444c.01-2.178.129-4.555-.173-6.703-.747-4.685-4.386-7.553-9.009-7.563-9.493-.02-18.977.026-28.457-.006l-12.743-.018c-4.001 0-8.778-.605-11.919 2.389-3.471 3.309-2.812 7.229-2.814 11.601l-.001 11.645.02 42.384-59.309.036.004-73.125c8.823.012 20.448.344 29.072-.096 3.277-2.013 2.962-6.584-.899-6.954-2.847-.271-6.376-.092-9.291-.086l-18.916.024q.052-6.944.025-13.886l2.821-1.175c.767.002 3.391.436 4.285.565.199 2.138.355 4.563 1.098 6.584.322.876.808 1.796 1.711 2.182 3.873 1.648 18.47-3.701 22.538-5.503 3.561.472 7.326.731 10.919 1.035.314.999.805 2.423 1.066 3.359 2.196 7.87 4.477 6.357 10.816 3.819 4.287-1.716 7.731-3.627 11.623-6.134 3.952-.036 8.354.129 12.341.187 1.283 2.226 9.987 14.06 13.099 13.016 3.844-1.286 10.104-9.56 12.431-12.977l12.113-.235c2.805 1.78 5.668 3.604 8.722 4.943 11.185 4.902 11.022 5.529 14.96-6.102 3.353-.185 7.241-.842 10.554-.755 1.208.032 4.209 1.714 5.656 2.202 4.487 1.517 11.432 3.385 16.162 3.625.42-.209 1.135-.603 1.467-.898 1.565-1.396 2.045-6.303 2.16-8.376Z" style="fill:#7d4d41;fill-rule:nonzero"/><path d="M247.127 255.61c2.319-.165 5.672-.07 8.079-.07l13.823-.012 8.404-.002c1.119.002 3.862-.133 4.832.143 3.731 1.059 3.333 5.097.42 6.89-2.078.207-5.401.117-7.555.119l-12.604.012h-9.536c-1.414-.002-4.051.139-5.375-.145-3.787-.812-3.422-5.119-.49-6.934ZM128.957 255.606c3.463-.181 34.021-.35 35.5.171.751.265 1.32.798 1.699 1.493.51.938.631 2.134.275 3.146-.386 1.095-1.207 1.678-2.201 2.184-6.04.352-13.524-.125-19.786.07-4.855-.219-10.799.424-15.55-.183-2.535-.321-3.599-4.927.062-6.881ZM122.926 281.723c3.253-.135 18.869-.412 21.098.185.83.221 1.565.884 1.97 1.629.5.92.57 2.007.246 2.998-.385 1.175-1.233 1.702-2.282 2.242-3.186.233-19.215.464-21.547-.217-.835-.245-1.435-.874-1.794-1.654-.467-1.013-.458-2.096-.05-3.128.442-1.117 1.307-1.599 2.359-2.055M267.745 281.749c3.301-.163 19.535-.51 21.703.366.711.287 1.23.94 1.479 1.654.33.946.416 2.367-.06 3.277-.526 1.007-1.425 1.501-2.479 1.79-2.863.151-19.27.348-21.072-.207-.822-.253-1.503-.954-1.871-1.716-.502-1.043-.46-2.075-.028-3.132.456-1.109 1.262-1.595 2.329-2.031ZM144.027 295.386c3.363-.139 18.94-.424 21.221.189.85.227 1.538.91 1.919 1.688.436.886.523 1.826.21 2.765-.417 1.248-1.193 1.802-2.341 2.351-3.212.137-19.428.47-21.494-.195-.822-.265-1.493-.942-1.831-1.726-.393-.912-.415-2.228.006-3.136.483-1.041 1.262-1.559 2.31-1.935ZM246.333 295.388c5.276-.295 10.83.062 16.134-.08 2.136-.056 5.839-.442 7.042 1.561.544.926.701 2.029.44 3.07-.309 1.195-1.123 1.8-2.11 2.409-6.22.255-14.426.123-20.765.032-3.054-.042-4.627-4.531-.741-6.992" style="fill:#492d26;fill-rule:nonzero"/><path d="M101.213 317.905c4.249-.227 10.261-.044 14.682-.046l28.152-.004 86.761-.002h53.939l15.73.002c3.502.002 7.074-.145 10.544.295 2.041.259 3.693 2.12 4.183 4.061a6.64 6.64 0 0 1-.745 5.091c-1.021 1.672-2.182 2.323-4 2.799-10.946.34-23.759.046-34.841.044l-66.874-.006-70.466.008c-12.088.004-24.176.032-36.263-.022-2.803-.012-5.078-1.822-5.736-4.553a6.54 6.54 0 0 1 .841-5.051c1.06-1.64 2.271-2.232 4.093-2.616" style="fill:#a36454;fill-rule:nonzero"/><path d="m209.073 122.777 7.462.063c3.85 5.778 3.725 11.395 1.778 17.886-2.598 7.692-6.875 13.265-12.57 18.924-6.965-6.573-12.32-14.408-13.617-24.129-.573-4.297.304-9.205 3.033-12.678 2.218-.107 5.023-.042 7.286-.047.04 4.819-.307 14.036.123 18.44 1.991 3.099 4.575 2.78 6.486-.186.301-5.199.012-12.808.018-18.272ZM179.109 122.227c2.781-.374 5.198-.023 7.915.5-5.233 5.941-11.62 11.395-16.97 17.264-3.065 3.363 1.222 7.308 4.392 4.664 3.784-3.157 7.348-7.056 10.835-10.594.302 4.081 1.117 7.389 2.438 11.231.142.412-.623 1.124-.889 1.443-7.316 7.707-18.691 9.132-28.757 9.181-.018-13.598 5.328-31.561 21.037-33.688ZM228.948 122.036c8.433-.508 15.2 4.787 19.214 11.696 4.199 7.227 5.041 13.939 5.405 22.031-9.393.017-18.812-.906-26.57-6.832-1.392-1.048-2.204-2.036-3.247-3.397 1.575-4.532 2.025-6.656 2.546-11.362 2.216 2.454 9.873 10.345 12.521 11.668 1.609-.458 3.45-1.111 3.657-3.044.201-2.701-3.355-4.923-4.993-6.746-4.051-4.508-9.037-8.656-12.935-13.246 1.72-.439 2.654-.609 4.402-.768M158.01 182.759l.216.198c.501 1.509.036 2.425-.676 3.793-3.009 5.775-3.464 11.377-3.275 17.808-5.365 8.378-17.291 11.625-26.378 13.594-1.122-9.447-1.418-16.905 2.299-25.994.766-1.741 1.672-3.224 2.787-4.755 5.402-.028 8.818-.274 14.132-1.223-3.428 4.596-7.035 9.491-10.207 14.271-2.261 3.417 2.848 6.606 5.025 3.88 5.5-6.884 10.583-14.723 16.077-21.572M253.221 182.925c.78.462 2.962 3.406 3.653 4.321q4.032 5.37 8.009 10.781c1.201 1.653 4.274 6.531 5.945 7.172.86.332 1.818.287 2.642-.123 4.523-2.274-.601-7.371-2.401-9.795l-6.723-9.148c5.121 1.047 8.895 1.129 14.078 1.267 1.085 1.542 1.782 2.726 2.628 4.396 4.045 8.198 3.741 17.528 2.542 26.326-9.811-2.272-20.12-4.617-26.278-13.691.066-4.837-.342-9.943-2.084-14.509-.964-2.528-2.674-4.352-2.011-6.997M205.723 81.932c.936.833 2.313 2.53 3.168 3.562 6.741 8.116 13.419 20.099 9.174 30.789-2.391-.361-6.468-.241-8.969-.23-.022-4.914.024-9.918-.05-14.817-.81-1.491-1.276-1.886-2.815-2.43-4.669.166-3.759 4.325-3.751 7.778l.016 9.399c-2.696.044-6.586-.011-9.121.466-4.685-12.473 4.374-25.655 12.347-34.517ZM194.539 189.783c3.187 3.564 4.166 5.102 7.911 8.564-.024 2.069-.555 9.868 1.003 10.868 7.241 4.651 5.68-8.328 5.652-10.762 2.913-2.785 5.409-5.437 7.786-8.695l.209.352c3.476 5.955 2.883 11.078 1.155 17.454-2.622 7.846-6.948 13.277-12.461 19.172-8.875-9.55-18.722-23.785-11.254-36.953ZM106.109 182.024c4.065 1.145 8.491 1.562 12.702 1.637a796 796 0 0 1-8.64 8.601c-1.568 1.536-3.219 3.032-4.639 4.714-2.662 3.152 1.391 7.118 4.534 4.502 1.982-1.65 3.766-3.552 5.605-5.378q5.21-5.136 10.355-10.335c-1.493 2.638-2.099 4.26-3.11 7.072a51.2 51.2 0 0 0-2.193 12.732c-8.573 6.21-17.245 7.036-27.491 7.016.189-2.658.502-5.308.937-7.94 1.454-8.43 4.682-17.501 11.939-22.62ZM305.118 182.079c.707.065 1.959 1.258 2.509 1.787 7.673 7.39 9.849 18.588 10.633 28.708-9.917.141-19.489-.876-27.494-7.249-.133-4.558-.854-7.594-1.989-11.896-1.005-3.019-1.611-4.386-3.187-7.149 5.754 4.915 10.759 10.93 16.628 15.7 2.029 1.65 6.313-1.901 4.047-4.764-1.376-1.737-2.98-3.072-4.561-4.608a422 422 0 0 1-9.124-9.022c4.874-.176 7.814-.53 12.537-1.507Z" style="fill:#1a7536;fill-rule:nonzero"/><path d="M217.443 156.481a18.34 18.34 0 0 1 2.194 8.64c.129 11.077-6.534 19.791-13.801 27.312-5.958-5.681-9.856-10.892-12.503-18.74-1.935-6.528-2.078-11.092.702-17.275 2.689 3.842 5.135 6.173 8.444 9.419-.014 2.725-.054 5.425.078 8.148 1.302 1.872 3.576 3.161 5.553 1.169 1.658-1.671 1.065-6.9 1.055-9.44 3.136-3.3 5.473-5.583 8.278-9.233M256.642 119.605c9.708-1.314 21.902 6.006 28.782 12.389-5.963 6.505-12.782 11.547-21.374 13.928-1.493.29-3.201.409-4.732.552-.39-3.47-1.39-6.692-2.467-9.984l10.345-.507a6.7 6.7 0 0 0 1.003-.73c.707-.637 1.143-1.429 1.141-2.395-.002-.905-.334-1.698-1.011-2.303-2.071-1.845-11.651-.713-14.637-.571-1.977-3.067-3.092-4.44-5.521-7.089 2.927-1.819 5.099-2.712 8.471-3.291ZM150.598 119.623c4.745-.518 8.79.697 12.817 3.171-2.288 2.245-3.941 4.497-5.604 7.214-4.376-.048-9.058-.536-13.336-.428-2.811 1.894-3.059 4.408-.2 6.406q5.188.322 10.384.502c-1.34 3.673-1.824 6.051-2.574 9.841-10.203-.332-19.376-7.038-26.041-14.336 7.341-6.176 14.777-11.176 24.554-12.37M127.633 148.756c2.495-.376 6.258.085 8.697.669-2.694 3.121-3.577 4.473-5.513 8.033-2.999 1.529-13.062 4.762-13.531 6.999-1.64 7.823 8.699 2.217 10.068 1.612-.888 3.909-1.279 6.496-1.847 10.485-.509.406-.739.311-1.49.425-7.825.514-14.78-.278-22.11-3.173 4.529-11.154 12.782-23.461 25.726-25.049ZM143.512 151.621c.599.036 2.373.505 3.063.656 1.772.388 3.123.536 4.925.665a89 89 0 0 0-.214 5.399c-2.285 2.542-9.519 7.211-7.542 10.568 2.943 4.998 7.766-1.886 10.289-3.93 1.853-1.501 2.33-2.948 5.014-2.338-.084 1.35-.662 2.892-.889 4.355-.406 2.623-.486 5.014-.598 7.653.002.106-.08.494-.102.616-1.141 1.077-2.961 1.764-4.399 2.347-6.922 2.807-13.913 3.231-21.27 3.217l.015-.206c.77-10.656 3.257-21.69 11.707-29.002ZM280.574 148.762c14.213-1.45 24.376 13.732 28.952 25.224-6.317 2.035-10.89 2.964-17.54 3.139-2.21-.02-3.864-.157-6.038-.387-.036-3.425-1.025-7.311-1.822-10.65 2.059.899 6.285 3.159 8.159 2.457 2.929-1.097 2.97-4.412.265-5.851-3.838-2.043-7.97-3.531-11.838-5.297-2.027-3.662-2.562-4.625-5.198-7.797 1.754-.496 3.257-.681 5.059-.836ZM267.606 151.738l.358-.039c.538.22 1.123.705 1.531 1.129 7.1 7.384 9.706 18.175 10.02 27.974-7.902.122-19.128-.826-25.563-5.645 0-2.94-.199-5.847-.671-8.751-.189-1.158-.784-2.907-.834-3.783.597-.308 1.481-.256 2.188-.277 1.802 1.642 8.272 8.644 10.301 8.232 8.754-1.774-2.383-9.779-4.752-12.16.002-1.903-.072-3.596-.171-5.49 3.044-.206 4.641-.502 7.593-1.19M178.956 159.157c.843 1.169-6.868 13.058-6.187 16.122.177.796.716 1.447 1.415 1.849a3.62 3.62 0 0 0 2.768.349c.474-.134 1.331-.598 1.56-.995 2.418-4.184 4.433-9.893 6.666-14.046l.094-.172c-.17 6.788.511 10.585 2.949 16.984-.878.926-1.828 1.864-2.726 2.778-5.552 5.017-10.572 7.502-17.435 10.051q-.175-.41-.34-.824c-3.712-9.346-5.246-19.601-1.193-29.091 5.05-.981 7.26-.988 12.428-3.005ZM232.194 159.256c4.967 1.642 7.876 2.205 13.014 2.929l.084.218c3.681 9.627 2.21 20.472-1.901 29.709-6.409-2.31-11.581-4.964-16.71-9.555-1.175-1.148-2.138-2.235-3.231-3.466 2.391-6.488 2.873-10.098 2.793-16.8 1.798 3.863 3.574 7.742 5.33 11.624.987 2.184 2.389 4.942 5.312 3.536a3.45 3.45 0 0 0 1.772-1.971c.697-2.048-1.794-5.87-2.65-7.833-1.218-2.79-2.546-5.618-3.813-8.39ZM157.211 93.237q.696.007 1.392.032c10.058.35 20.41 2.448 27.547 10.07-.495 2.528-.872 5.406-.652 7.989.12 1.413.663 2.801.551 4.276l-.34.128c-1.696-.145-2.592-1.174-3.753-2.318-2.423-2.387-4.804-4.822-7.185-7.251-1.841-1.892-3.979-3.187-6.206-1.213-3.103 2.75 5.175 9.445 6.88 11.194-2.368.675-4.125 1.428-6.319 2.519-3.051-2.091-4.447-2.757-7.755-4.256-3.393-6.287-3.938-14.156-4.161-21.171ZM252.487 93.315l1.75-.049c-.046 7.083-1.143 14.811-4.446 21.115-3.044 1.585-4.511 2.345-7.225 4.45-2.383-1.258-3.982-1.894-6.554-2.681 1.306-1.394 2.805-2.87 4.233-4.24 2.073-1.989 5.614-5.612 1.471-7.664-1.372-.679-2.423-.313-3.661.495-.918.788-2.604 2.653-3.528 3.585l-7.088 7.052c-.681.136-1.485.235-2.18.34 1.22-5.334 1.045-7.263.239-12.618 7.524-7.269 16.825-9.296 26.989-9.785M187.217 189.291c-.076.657-.983 2.914-1.195 3.865-1.132 5.064-.866 8.824.276 13.775-6.045 8.427-12.317 11.32-21.526 15.244-2.067-5.365-3.423-10.526-3.893-16.283-.394-3.671-.036-8.196.819-11.791 2.674 7.146 4.371 5.698 10.788 3.443-.929 2.068-2.198 4.027-2.728 6.245-.759 3.185 3.591 5.306 5.499 2.59 2.815-4.061 4.384-9.099 6.964-13.313.447-.731 4.034-3.045 4.997-3.774ZM224.236 189.385c.372.163 4.772 3.225 5.041 3.581 3.018 4.048 4.476 11.746 8.648 14.537 1.646 1.101 4.535-1.286 4.075-3.432-.396-1.832-1.714-4.325-2.682-6.379 6.112 2.129 7.91 3.576 10.43-3.376.79 4.042 1.049 6.705.908 10.872-.225 6.206-1.77 11.292-3.846 17.014-9.184-3.932-15.549-7.026-21.49-15.392 1.483-6.804 1.433-10.911-1.083-17.425Z" style="fill:#1a7536;fill-rule:nonzero"/><path d="m184.804 281.288.997.997c-.28.329-.193.375-.468.698-.428.503-.501.417-.525.468-.015.033-.009.036-.061 2.3-.004.161-.422 2.227 1.017 2.563.274.064 1.059.039 33.899.044 6.205.001 6.3.107 6.772-.344.571-.546.299-4.525.281-4.563-.1-.213-.375-.289-.527-.468-.182-.214-.287-.487-.469-.701l.996-.994c.214.182.487.286.701.468.179.152.255.426.467.526.222.104.24-.037 3.069.062.874.031.857-.018 1.715-.246.022.371-.189.322-.167.685.004.066.108.032.255.786.032.165.032 1.317.032 1.432.001 2.362-.471 3.325 1.897 3.357.232.003 2.707.037 2.9.007.31-.049.559-.312.869-.361.246 1.079.344 1.063.345 3.008.008 12.885.38 12.918-.33 15.793-.315-.05-.57-.314-.885-.364-.195-.031-2.667.003-2.899.007-2.729.038-1.654 1.376-1.895 4.088-.039.438-.105.618-.124.669-.224.61-.325.554-.55 1.167-.117.004-.2.146-.316.15-.431.013-.424-.201-5.388-.076.643-2.012.403-2.042.363-4.162-.037-1.984-.625-1.959-2.603-1.893-2.377.08-3.377-.462-3.407 1.912-.045 3.562.134 3.742.358 3.969.19.192.609-.058.798.134-.18.185-1.005-.019-1.154 1.91-.032.416.04 2.087.048 2.268.099 2.28 1.102 1.83 6.408 1.848-.015.041-.1.02-.115.061-.385 1.042-.265 1.473-.274 1.799-.081 2.947-.037 2.946-.063 3.201-.029.276-.216.52-.245.796-.916.075-.894.22-2.354.192-7.672-.151-33.151.007-37.57 0-1.217-.002-1.196-.14-1.605-.187-.028-.277-.216-.521-.244-.798-.026-.255.031-.253-.059-3.203-.01-.334.109-.755-.278-1.8-.015-.041-.1-.021-.115-.062 5.354-.009 6.317.388 6.413-1.845.008-.181.062-1.447.046-2.269-.038-1.917-.896-1.632-1.157-1.91.189-.192.608.051.797-.141.223-.227.402-.408.359-3.961-.029-2.376-1.031-1.832-3.408-1.912-1.979-.067-2.567-.091-2.605 1.894-.04 2.114-.283 2.145.368 4.16-4.972-.112-4.961.093-5.392.076-.119-.005-.201-.154-.32-.158-.222-.608-.33-.549-.553-1.159-.019-.051-.076-.208-.113-.668-.221-2.717.837-4.053-1.898-4.089-.232-.003-2.715-.036-2.898-.008-.31.048-.561.308-.871.356-.569-2.214-.345-2.233-.346-4.511l-.002-7.515c0-4.992-.056-5.001.345-6.767.311.048.564.309.875.357.197.031 2.666-.003 2.898-.006 2.363-.032 1.894-.993 1.894-3.353 0-.115 0-1.272.032-1.433.053-.271.242-.511.259-.786.014-.234-.183-.449-.169-.684.855.225.839.274 1.716.244 2.828-.098 2.846.043 3.068-.06.213-.099.29-.373.468-.525.213-.182.485-.287.698-.468Z" style="fill:#32c230"/><path d="M178.703 317.27c.207.216.14.611.347.828.145.152.641.255.699.267.416.086.415-.036.822.048-.196.122-.496-.09-.692.032-1.03.639-1.237.644-1.193 1.864.127 3.501-.07 3.675.023 3.768.375.376 1.725.351 4.135.399 1.299.026 1.218-.352 1.49-.385.228-.028.432.228.66.201.41.048.388.186 1.605.187 4.419.006 29.898-.152 37.57 0 1.459.029 1.438-.117 2.354-.192.228.015.424-.227.652-.212.783.05.707.361 1.497.394.598.025 3.641-.044 3.764-.016.256.059.457.278.714.338-.069.293-.282.538-.351.831-.045.192.042 9.532-.068 9.772-.098.215-.357.31-.524.478s-.263.426-.478.524c-.24.11-.527.048-.791.054-2.126.051-3.709.038-4.113-.349-.13-.125.001-.152 0-2.254 0-.5.003-1 0-1.499-.007-1.234.128-1.553-1.075-1.822-.17-.038-.171-.035-33.895-.035-6.201 0-6.31-.111-6.776.337-.586.564-.238 5.122-.389 5.273-.284.284-.748.304-1.14.389-.094.02-3.692-.061-3.763-.094-.215-.098-.298-.37-.478-.524-.211-.182-.475-.296-.686-.478.019-.791.213-8.949.021-9.893-.248-1.217-.588-1.066-1.823-1.073-.5-.003-1 0-1.5 0-1.981-.001-2.644.124-2.655-1.857-.003-.5 0-1 0-1.499v-.76c-.022-1.041-.203-.996-.312-1.531l.341-.714c.422.078.384.455 3.379.393 1.397-.029 1.401.047 1.503-.018.456-.291.668-.879 1.123-1.17Z" style="fill:#1c1d18"/><path d="M202.37 246.274c.418 0 5.174-.002 5.231.012 1.35.345 1.14 1.674 1.14 2.642.001 7.955-.089 8.534.389 9.031.418.435 2.493.337 5.273.337 11.454 0 11.559-.07 12.036.389.459.442.334 3.108.337 3.765.005 1.024-.218.968-.336 1.494-.298.048-.527.325-.826.373-.671.107-6.955-.232-11.305.12-4.097-.144-4.098-.185-4.375-.113-1.23.32-1.119.617-1.14 1.878-.051 2.988-.407 4.08 1.839 4.118 1.818.03 1.803-.01 3.63-.076l1.03.12c-.175.59-.339.51-.517 1.11-.016.055-.041.139-.023.713.025.784.027.766.002 1.543-.052 1.588.327 2.743-2.608 2.653-6.37-.196-8.377.215-8.988-.429-.759-.8-.281-3.795-.401-4.517-.043-.259-.315-.443-.358-.702.481-2.225.321-2.231.379-4.517.045-1.761-.881-1.843-1.892-1.859-1.845-.03-1.835-.023-3.676.08-3.439-.164-10.937-.034-11.305-.121-.293-.07-.532-.302-.825-.372-.118-.526-.342-.469-.337-1.494.003-.657-.122-3.324.337-3.765.478-.459.583-.389 12.037-.389 2.778 0 4.855.098 5.273-.337.417-.434.392-1.394.388-1.52-.03-1.132-.034-1.118-.052-2.26-.031-1.903-.755-1.527-1.124-1.889.442-.705.709-.449 1.153-1.158.03-.048.032-.051.019-.713-.005-.247-.047-.492-.048-.738-.003-1.737.193-1.765-.36-3.408ZM233.198 270.713c.49-.112.435-.35 1.499-.341 2.092.017 2.078-.002 2.259.001.123.002 1.2.018 1.507.337.756.786.076 4.714.701 5.311.529.505 3.186.355 3.804.364 2.397.036 1.844 1.372 1.844 4.107 0 18.851-.009 19.478.052 19.538.284.284.747.304 1.14.388.6.13 3.792-.314 4.483.35.559.538.289 4.551.282 4.566-.098.215-.37.298-.524.478-.182.211-.296.475-.478.686-1.542-.055-1.529-.078-3.06-.054-1.272.019-1.568-.087-1.882 1.139-.024.095-.009 8.668-.013 8.988-.021 1.394.087 1.411 0 1.494-.29.278-.748.304-1.14.389-.058.013-2.738.013-2.976.013-.199-.123-.502.084-.7-.039-1.023-.632-1.228-.634-1.194-1.845.114-4.15-.027-4.14.049-8.292.023-1.241-.298-1.165-.38-1.487.711-2.875.338-2.908.33-15.793-.001-1.945-.099-1.929-.345-3.008.142-.544.38-.487.39-1.493.015-1.606.002-8.927-.017-9.025-.074-.389-.097-.847-.377-1.127-.215-.215-.279.061-3.796-.026-.958-.024-.948-.054-1.856-.375.006-.298.049-2.505.043-3.727-.005-1.1.246-1.043.358-1.517Z" style="fill:#1c1c18"/><path d="M196.472 270.203c.234.014.449-.185.683-.172.113.007.433.274 1.475.289 1.134.017 1.118.017 2.24.053.915.029.865.204 1.531.362.043.259.315.443.358.702.12.722-.357 3.717.401 4.517.611.644 2.618.233 8.988.429 2.935.09 2.556-1.064 2.608-2.653.025-.776.023-.759-.002-1.543-.018-.575.007-.659.023-.713.178-.6.342-.52.517-1.11 2.996-.056 2.995-.217 5.956.178-.096.375-.31.713-.406 1.088-.043.168-.043 9.293 0 9.459.096.374.311.711.406 1.085-6.221.45-21.071-.025-28.638.221-.188.006-.57.019-2.341-.214.044-.173.365-.546.432-1.704.038-.658.125-2.185.004-8.235-.011-.545-.016-.564-.028-.611-.146-.57-.262-.521-.407-1.087 2.294-.124 2.282-.163 4.589-.167 1.21-.002 1.189-.127 1.61-.172Z" style="fill:#0c720c"/><path d="M171.526 276.37c.291.452.875.663 1.166 1.115.068.105-.049.791-.027 1.504.134 4.334.027 6.264.006 7.52-.021 1.244.309 1.175.393 1.493-.401 1.766-.345 1.776-.345 6.767l.002 7.515c0 2.279-.224 2.297.346 4.511-.126.473-.392.404-.399 1.496-.036 5.393.032 7.629.052 8.292.004.119-.002.11-.022 1.482l-.341.714c-.326-.077-.286-.356-1.544-.364-.646-.004-3.324.123-3.766-.337-.477-.496-.388-1.064-.389-9.031 0-1.981.124-2.644-1.857-2.655-.5-.003-.999 0-1.499 0-.124 0-1.428 0-1.547-.055-.215-.098-.311-.357-.478-.525-.167-.167-.426-.262-.524-.478-.007-.016-.277-4.029.282-4.566.6-.577.69-.384 1.52-.389.645-.004 3.324.123 3.766-.337.458-.477.389-.582.389-12.036 0-4.896.078-4.881-.052-9.765-.033-1.239-.14-1.55 1.075-1.822.157-.035.152-.015 3.794-.048Z" style="fill:#1c1c19"/><path d="M185.801 282.285c2.25.088 2.24.155 4.469-.106 1.77.233 2.153.221 2.341.214 7.566-.246 22.417.229 28.638-.221 2.24.266 2.23.167 4.471.109.182.214.287.487.469.701.152.179.427.255.527.468.018.038.29 4.017-.281 4.563-.472.451-.567.345-6.772.344-32.841-.005-33.625.02-33.899-.044-1.439-.336-1.02-2.401-1.017-2.563.052-2.264.046-2.267.061-2.3.024-.051.097.035.525-.468.275-.323.188-.369.468-.698Z" style="fill:#96f44c"/><path d="m226.44 263.945.747.756c-.107.457-.363.401-.355 1.517.015 2.093-.003 2.076.001 2.257.019.882.276 1.946 1.848 1.896 2.712-.086 2.712-.004 2.945-.041.298-.048.527-.326.826-.374l.747.756c-.112.474-.363.417-.358 1.517a197 197 0 0 1-.043 3.727c.037 1.29.059 4.99.039 5.264-.022.297-.146.58-.168.876-.858.228-.841.277-1.715.246-2.829-.099-2.847.042-3.069-.062-.212-.099-.289-.374-.467-.526-.214-.182-.487-.286-.701-.468.168-4.308.051-10.568-.122-10.74-.21-.21-.591-.061-.886-.1-2.365-.315-4.033.045-4.459.094-2.96-.395-2.959-.234-5.956-.178l-1.03-.12c.087-.413.505-.637.535-2.528.003-.169.026-1.657-.085-2.107-.099-.401-.305-.771-.404-1.172 4.351-.351 10.635-.013 11.305-.12.298-.048.527-.325.826-.373Z" style="fill:#98f250"/><path d="M238.468 306.804c.082.322.403.246.38 1.487-.076 4.152.065 4.142-.049 8.292-.033 1.211.171 1.213 1.194 1.845.199.123.502-.084.7.039-.415.084-.412-.05-.822.033-.06.012-.551.112-.71.278-.208.217-.143.614-.351.831-.451-.292-.663-.875-1.115-1.167-.102-.066-.871.05-2.255.021-1.153-.024-1.147-.034-1.502-.021l-1.471-.346c.033-.14.432-.356.37-2.287-.006-.187-.072-2.258-.084-2.332-.145-.904-.564-.974-.641-1.107.225-.613.326-.557.55-1.167.019-.051.085-.231.124-.669.242-2.712-.833-4.051 1.895-4.088.232-.003 2.704-.037 2.899-.007.315.05.57.314.885.364Z" style="fill:#0f6f0c"/><path d="M172.669 274.488c.123.199-.084.502.039.7 1.022 1.653 1.428 1.101 3.368 1.139 1.355.027 1.369.076 2.646-.371-.035 1.239-.059 4.98-.038 5.264.022.297.147.58.169.876-.014.234.183.449.169.684-.017.275-.206.515-.259.786-.032.16-.032 1.318-.032 1.433 0 2.359.469 3.32-1.894 3.353-.232.003-2.701.037-2.898.006-.311-.048-.564-.309-.875-.357-.084-.318-.414-.249-.393-1.493.021-1.256.128-3.185-.006-7.52-.022-.713.095-1.399.027-1.504-.291-.452-.875-.663-1.166-1.115.217-.208.614-.143.831-.35.166-.159.266-.65.278-.71.083-.41-.051-.407.033-.822Z" style="fill:#0d6f0e"/><path d="M185.081 263.945c.293.07.532.302.825.372.368.088 7.866-.042 11.305.121-.093.479-.567.582-.49 4.047.02.884-.021.867-.25 1.717-.421.045-.4.17-1.61.172-2.308.005-2.296.043-4.589.167-1.523-.177-1.781-.385-5.329.028l-.257-.6c.014-.356.15-3.888.016-4.449-.07-.294-.303-.532-.373-.826l.752-.751ZM179.069 269.956c.298.048.528.325.826.373.233.037.233-.044 2.945.042 1.064.034 1.824-.396 1.846-.4l.257.6c-.474 3.196-.225 7.469-.139 10.718-.213.182-.485.287-.698.468-.179.152-.256.426-.468.525-.223.104-.24-.037-3.068.06-.876.03-.86-.018-1.716-.244-.022-.297-.147-.58-.169-.876-.021-.284.003-4.024.038-5.264-.006-.298-.049-2.495-.043-3.728.006-1.113-.251-1.055-.362-1.522z" style="fill:#97f24e"/><path d="M232.797 275.957c.909.321.899.351 1.856.375 3.517.087 3.581-.189 3.796.026.28.28.304.738.377 1.127.019.098.031 7.419.017 9.025-.009 1.006-.248.949-.39 1.493-.31.049-.559.312-.869.361-.194.03-2.668-.003-2.9-.007-2.367-.032-1.896-.996-1.897-3.357 0-.115 0-1.267-.032-1.432-.147-.754-.251-.72-.255-.786-.022-.363.189-.314.167-.685.022-.297.146-.58.168-.876.02-.274-.002-3.974-.039-5.264Z" style="fill:#0d710d"/><path d="M173.067 306.795c.31-.048.561-.308.871-.356.183-.028 2.666.005 2.898.008 2.734.036 1.677 1.372 1.898 4.089.037.459.095.617.113.668.222.61.331.551.553 1.159-.081.143-.491.198-.634 1.12-.102.659-.066 3.486-.063 3.789-.456.291-.668.879-1.123 1.17-.101.065-.105-.011-1.503.018-2.996.063-2.957-.315-3.379-.393.021-1.372.026-1.363.022-1.482-.02-.663-.088-2.899-.052-8.292.007-1.091.273-1.023.399-1.496Z" style="fill:#0e700e"/><path d="M179.4 312.361c.119.005.201.154.32.158.431.016.42-.188 5.392-.076 2.254-.062 2.239.036 4.49-.04.261.278 1.119-.007 1.157 1.91.016.822-.038 2.088-.046 2.269-.096 2.234-1.059 1.837-6.413 1.845-1.865-.011-1.856-.014-3.729-.016-.407-.084-.405.038-.822-.048-.059-.012-.554-.115-.699-.267-.207-.216-.14-.611-.347-.828-.004-.303-.039-3.129.063-3.789.142-.921.553-.977.634-1.12Z" style="fill:#ea9fb4"/><path d="M221.92 312.404c2.251.075 2.243-.023 4.49.041 4.964-.124 4.957.09 5.388.076.117-.004.2-.146.316-.15.077.133.495.203.641 1.107.012.074.078 2.145.084 2.332.061 1.931-.337 2.147-.37 2.287-.31.065-.312.292-1.52.319-.298.007-.294-.006-3.728.015-5.306-.018-6.309.432-6.408-1.848-.008-.181-.081-1.852-.048-2.268.15-1.929.975-1.725 1.154-1.91Z" style="fill:#eb9eb7"/><path d="M184.943 270.57c3.548-.413 3.806-.205 5.329-.028.145.566.261.517.407 1.087.012.047.017.066.028.611.121 6.05.033 7.577-.004 8.235-.066 1.157-.388 1.531-.432 1.704-2.23.261-2.219.194-4.469.106l-.997-.997c-.086-3.248-.334-7.521.139-10.718ZM221.249 270.541c.426-.049 2.094-.409 4.459-.094.295.039.675-.11.886.1.173.172.29 6.432.122 10.74l-.996.994c-2.241.059-2.231.157-4.471-.109-.096-.374-.311-.711-.406-1.085-.042-.165-.042-9.291 0-9.459.096-.375.31-.713.406-1.088Z" style="fill:#32c22f"/><path d="M227.222 318.43c3.434-.021 3.43-.008 3.728-.015 1.208-.027 1.21-.254 1.52-.319l1.471.346c-.27.457-.855.669-1.125 1.125-.123.209.045.234-.028 3.027-.032 1.211.173 1.213 1.195 1.845.199.123.501-.084.7.039l-1.531.312c-.256-.059-.457-.278-.714-.338-.123-.028-3.166.041-3.764.016-.79-.034-.714-.345-1.497-.394-.228-.015-.424.227-.652.212.029-.276.216-.52.245-.796.026-.255-.018-.253.063-3.201.009-.326-.111-.757.274-1.799.015-.041.1-.02.115-.061Z" style="fill:#126b0e"/><path d="M180.571 318.413c1.873.002 1.864.004 3.729.016.015.041.1.021.115.062.386 1.046.267 1.466.278 1.8.09 2.95.033 2.948.059 3.203.028.277.216.521.244.798-.228.028-.432-.228-.66-.201-.272.033-.19.41-1.49.385-2.41-.047-3.761-.023-4.135-.399-.093-.094.104-.268-.023-3.768-.044-1.22.163-1.225 1.193-1.864.196-.122.496.09.692-.032Z" style="fill:#0f700e"/><path d="M197.211 264.438c1.841-.103 1.831-.11 3.676-.08 1.011.016 1.937.098 1.892 1.859-.058 2.286.102 2.292-.379 4.517-.665-.157-.615-.332-1.531-.362-1.122-.036-1.107-.036-2.24-.053-1.042-.015-1.362-.283-1.475-.289-.234-.014-.449.185-.683.172.229-.851.269-.834.25-1.717-.077-3.465.397-3.568.49-4.047" style="fill:#34c130"/><path d="M189.602 312.403c-2.251.076-2.235-.022-4.49.04-.651-2.015-.408-2.046-.368-4.16.038-1.985.626-1.96 2.605-1.894 2.378.08 3.379-.464 3.408 1.912.044 3.553-.135 3.735-.359 3.961-.189.192-.608-.051-.797.141Z" style="fill:#1a1e16"/><path d="M221.92 312.404c-.19-.192-.609.058-.798-.134-.224-.227-.402-.407-.358-3.969.03-2.373 1.029-1.832 3.407-1.912 1.978-.066 2.566-.091 2.603 1.893.039 2.12.279 2.15-.363 4.162-2.248-.063-2.239.034-4.49-.041Z" style="fill:#1a1d17"/><path d="M179.035 335.236c.276.32.198.361.478.686.432.501.501.426.524.478.043.094.138 4.471.055 4.554-.284.284-.748.304-1.14.389-.202.044-1.648-.058-2.216-.039-.21.007-2.179.075-2.604-.35a38 38 0 0 1-.052-1.507c.078-2.948-.067-3.82 1.192-4.142.292-.075.297.015 3.763-.068Z" style="fill:#1e1c1a"/><path d="M202.37 246.274c.552 1.644.356 1.671.36 3.408 0 .247.043.492.048.738.013.661.011.664-.019.713-.445.709-.712.453-1.153 1.158-2.613-.011-4.378.1-4.834-.356-.213-.213-.052-.271.002-3.767.037-2.421 1.159-1.787 5.597-1.894Z" style="fill:#106f11"/><path d="M161.855 310.793c-.392.085-.748.304-1.14.389-.202.044-1.648-.058-2.216-.039-.21.007-2.179.075-2.604-.35a38 38 0 0 1-.052-1.507c.078-2.948-.067-3.82 1.192-4.142.08-.02 3.692.061 3.763.094.215.098.31.357.477.524s.426.262.524.478c.196.43.067 4.189.055 4.554Z" style="fill:#1e1b1a"/><path d="M184.329 264.696c.07.294.303.532.373.826.134.561-.002 4.093-.016 4.449-.022.005-.782.434-1.846.4-2.712-.086-2.713-.005-2.945-.042-.298-.048-.528-.325-.826-.373-.118-.526-.342-.47-.336-1.494.014-2.654-.591-4.065 1.844-4.102.181-.003.166.016 2.259-.001 1.049-.008.995.224 1.494.336Z" style="fill:#1c1d17"/><path d="M178.318 270.708c.111.467.368.408.362 1.522-.006 1.233.037 3.43.043 3.728-1.277.447-1.291.397-2.646.371-1.94-.038-2.347.514-3.368-1.139-.123-.199.084-.502-.039-.7.001-1.863-.306-3.773 1.076-4.081.088-.02.089-.012 3.079-.035 1.05-.008.996.224 1.494.337Z" style="fill:#1d1c17"/><path d="M249.508 306.208c.325-.28.366-.202.686-.478.501-.431.426-.501.478-.524.213-.097 2.815-.058 3.06-.054 2.273.034 1.876 1.211 1.844 2.604-.064 2.786.173 2.84 0 3.006-.11.105-.457.439-1.857.402-2.948-.078-3.82.067-4.142-1.192-.075-.292.015-.297-.068-3.763Z" style="fill:#1e1c19"/><path d="M214.309 264.437c.099.401.305.771.404 1.172.111.45.088 1.938.085 2.107-.03 1.89-.448 2.115-.535 2.528-1.827.066-1.812.106-3.63.076-2.246-.038-1.891-1.129-1.839-4.118.022-1.261-.09-1.558 1.14-1.878.277-.072.277-.031 4.375.113" style="fill:#34c131"/><path d="M227.186 264.701c.489-.111.434-.35 1.499-.341 2.085.016 2.078-.002 2.259.001 2.435.037 1.83 1.448 1.844 4.102.005 1.024-.218.968-.336 1.494-.298.048-.527.326-.826.374-.233.037-.233-.045-2.945.041-1.572.05-1.829-1.014-1.848-1.896-.004-.18.014-.164-.001-2.257-.008-1.117.248-1.06.355-1.517Z" style="fill:#1e1b17"/><path d="M237.54 337.882c.081 2.361.526 3.32-1.844 3.356-3.06.046-4.066.414-4.116-1.843-.013-.574.003-2.946.054-3.06.098-.215.357-.31.525-.477.167-.167.262-.426.478-.525.071-.033 3.683-.114 3.763-.094 1.407.36 1.122 1.82 1.14 2.643" style="fill:#1c1c19"/><path d="M238.813 319.61c-.025 2.739-.01 2.735-.014 2.973-.021 1.394.087 1.411 0 1.494-.29.278-.748.304-1.14.389-.059.013-2.738.013-2.976.013-.199-.123-.501.084-.7-.039-1.022-.632-1.227-.634-1.195-1.845.074-2.793-.095-2.818.028-3.027.27-.457.855-.669 1.125-1.125.355-.013.35-.003 1.502.021 1.384.029 2.153-.087 2.255-.021.451.292.663.875 1.115 1.167" style="fill:#1c1c1a"/></svg>